<svg xmlns="http://www.w3.org/2000/svg" width="463.394" height="246.572"><defs><clipPath id="a" clipPathUnits="userSpaceOnUse"><path d="M0 800h800V0H0Z"/></clipPath></defs><g clip-path="url(#a)" transform="matrix(1.33333 0 0 -1.33333 -532.77 640.36)"><path d="m0 0 44.175 14.057L86.341 0l44.175 14.057L174.688 0l32.128-104.41-59.235 11.041-62.243-11.041-59.234 10.039-57.226-10.039Z" style="fill:#f2f1eb;fill-opacity:1;fill-rule:nonzero;stroke:none" transform="translate(540.306 399.752)"/><path d="m0 0-18.071-108.428 59.234-10.039 1.003 104.41z" style="fill:#eae8df;fill-opacity:1;fill-rule:nonzero;stroke:none" transform="translate(584.48 413.809)"/><path d="m0 0 17.065-107.426 59.236-11.041-32.128 104.41z" style="fill:#eae8df;fill-opacity:1;fill-rule:nonzero;stroke:none" transform="translate(670.821 413.809)"/><path d="m0 0-2.204 13.588-1.483-.241 27.31 9.252 1.904-11.993zm-23.646-22.295.102 10.693.017-.002v18.23l18.402 6.234 3.562-21.958zm-54.747.058 2.469 14.804-.005.001.65 3.611 48.739-7.33-.117-12.269zm-3.034.039h-19.631l1.968 10.941 19.878 2.347zm6.101 34.543-3.352-18.17-19.857-2.347 2.715 15.1zm49.276 14.958-.429-17.804-45.639 6.096 2.391 18.283zm-46.279-14.72 45.777-6.112-.004-.164h.029V-8.12L-74.748-.867zm67.144 11.566v-8.13L-23.47 9.823l.196 8.108zm3 15.526 22.097 6.289 3.232-20.349-25.329-8.581v11.319zm49.843-6.891 2.596-22.334-24.057 15.063-1.929 12.15ZM43.469-2.295 28.59 10.454l-1.765 11.109 15.496-9.72Zm3.58-7.018 38.722-18.93-1.298 4.219L46.687-4.846 45.493 9.853 80.88-12.348l-1.382 4.489-25.986 16.27-1.839 15.82 19.56-5.23-1.092 3.552-18.841 4.89-.788 6.777-1.504 13.561-2.983.948 1.299-12.811-23.559 4.913-1.421 8.944-24.529-6.981v7.377l-3-.955V27.321l-18.012-6.191.21 8.745-.032.005v13.662l-1.5-.479-1.5.5V30.331l-43.318 6.522 2.652 20.267-2.946-.937-5.52-40.676-20.291-5.359 5.071 39.435-3.166-1.008-.993-7.738-18.108-3.738-.981-3.293 18.684 3.881-1.304-10.166-20.44-3.979-.997-3.345 21.033 4.181-1.931-15.057-24.251-6.404-1.012-3.395 25.357 6.703-5.597-28.423h-.004v-.019l-.017-.084-27.442-4.115-.918-2.982 29.32 4.2h22.948l56.503-1.29L1.724-10.627.493-3.042 26.919 7.936z" style="fill:#85ccca;fill-opacity:1;fill-rule:nonzero;stroke:none" transform="translate(651.165 356.688)"/><path d="M1.198-10.786c5.396 0 9.778-4.381 9.778-9.78 0-5.4-4.382-9.777-9.778-9.777-5.4 0-9.782 4.378-9.782 9.778 0 5.398 4.381 9.779 9.782 9.779m24.707-9.78c0 13.639-11.069 24.7-24.707 24.7-13.655 0-24.71-11.061-24.71-24.7 0-2.31.343-4.52.933-6.647h-.015s2.268-14.89 23.681-38.281C20.865-45.275 24.971-27.31 24.971-27.31l-.028-.015c.604 2.158.962 4.41.962 6.76" style="fill:#fd5b44;fill-opacity:1;fill-rule:nonzero;stroke:none" transform="translate(652.663 452.508)"/></g><path d="M0 0c0-7.271-5.949-13.221-13.223-13.221h-151.225c-7.273 0-13.222 5.95-13.222 13.221v87.597c0 7.273 5.949 13.222 13.222 13.222h151.225C-5.949 100.819 0 94.87 0 87.597Z" style="fill:#fd5b44;fill-opacity:1;fill-rule:nonzero;stroke:none" transform="scale(1.33333 -1.33333) rotate(15 455.93 692.382)"/><path d="M0 0h-151.226c-7.273 0-13.221-5.949-13.221-13.223v-25.562h177.67v25.562C13.223-5.949 7.274 0 0 0" style="fill:#3d3d3f;fill-opacity:1;fill-rule:nonzero;stroke:none" transform="matrix(1.2879 -.3451 -.3451 -1.2879 207.828 .6)"/><path d="M524.826 426.833c5.83-21.762-7.084-44.131-28.846-49.962-21.762-5.832-44.131 7.084-49.962 28.845-5.831 21.762 7.083 44.132 28.845 49.963 21.763 5.832 44.132-7.085 49.963-28.846" style="fill:#bc3426;fill-opacity:1;fill-rule:nonzero;stroke:none" transform="matrix(1.33333 0 0 -1.33333 -516.79 656.34)"/><path d="M0 0c0-11.676-9.465-21.141-21.142-21.141-11.676 0-21.141 9.465-21.141 21.141 0 11.676 9.465 21.142 21.141 21.142C-9.465 21.142 0 11.676 0 0" style="fill:#343238;fill-opacity:1;fill-rule:nonzero;stroke:none" transform="scale(1.33333 -1.33333) rotate(15 326.91 413.85)"/><path d="M0 0a3.387 3.387 0 0 0-3.376-3.375h-30.761A3.387 3.387 0 0 0-37.513 0v16.506a3.387 3.387 0 0 0 3.376 3.376h30.761A3.387 3.387 0 0 0 0 16.506Z" style="fill:#bcb2b1;fill-opacity:1;fill-rule:nonzero;stroke:none" transform="scale(1.33333 -1.33333) rotate(15 188.509 605.829)"/><path d="M0 0h-24.157l-10.589-16.827H10.59z" style="fill:#4b4b4c;fill-opacity:1;fill-rule:nonzero;stroke:none" transform="scale(1.33333 -1.33333) rotate(15 46.94 346.32)"/><path d="M0 0c-.776 3.041-3.524 5.293-6.807 5.293h-10.691c-3.282 0-6.031-2.252-6.807-5.293Z" style="fill:#3d3d3f;fill-opacity:1;fill-rule:nonzero;stroke:none" transform="matrix(1.2879 -.3451 -.3451 -1.2879 52.612 42.19)"/></svg>